<?xml version="1.0" encoding="UTF-8"?>
<!DOCTYPE svg PUBLIC "-//W3C//DTD SVG 1.1//EN" "http://www.w3.org/Graphics/SVG/1.1/DTD/svg11.dtd">
<!-- Creator: CorelDRAW X6 -->
<svg xmlns="http://www.w3.org/2000/svg" xml:space="preserve" width="100%" height="100%" version="1.1" style="shape-rendering:geometricPrecision; text-rendering:geometricPrecision; image-rendering:optimizeQuality; fill-rule:evenodd; clip-rule:evenodd"
viewBox="0 0 500 500"
 xmlns:xlink="http://www.w3.org/1999/xlink">
 <defs>
  <style type="text/css">
   <![CDATA[
    .fil1 {fill:#303030}
    .fil3 {fill:#454545}
    .fil2 {fill:#5D5D5D}
    .fil9 {fill:#5E9300}
    .fil7 {fill:#77BB00}
    .fil5 {fill:#DB2C00}
    .fil4 {fill:#FF3300}
    .fil8 {fill:#FFAA00}
    .fil6 {fill:#FFC146}
   ]]>
  </style>
 </defs>
 <g id="Layer_x0020_1">
  <metadata id="CorelCorpID_0Corel-Layer"/>
  <path class="fil1" d="M145 52l-104 0 0 10c0,58 47,105 104,105l0 0 0 -115zm0 146l-104 0 0 10c0,58 47,105 104,105l0 0 0 -115zm0 146l-104 0 0 11c0,57 47,104 104,104l0 0 0 -115zm210 -292l104 0 0 10c0,58 -47,105 -104,105l0 0 0 -115zm0 146l104 0 0 10c0,58 -47,105 -104,105l0 0 0 -115zm0 146l104 0 0 11c0,57 -47,104 -104,104l0 0 0 -115z"/>
  <rect class="fil2" x="145" y="20" width="209" height="460" rx="10" ry="10"/>
  <path class="fil3" d="M250 20l94 0c6,0 11,5 11,10l0 440c0,5 -5,10 -11,10l-94 0 0 -460z"/>
  <circle class="fil4" cx="250" cy="110" r="57"/>
  <path class="fil5" d="M250 52c32,0 58,26 58,58 0,31 -26,57 -58,57l0 -115z"/>
  <circle class="fil6" cx="250" cy="250" r="57"/>
  <circle class="fil7" cx="250" cy="391" r="57"/>
  <path class="fil8" d="M250 193c32,0 58,25 58,57 0,32 -26,58 -58,58l0 -115z"/>
  <path class="fil9" d="M250 334c32,0 58,25 58,57 0,32 -26,58 -58,58l0 -115z"/>
 </g>
</svg>
